# xmcd
#
# Track frame offsets:
#	150
#	78043
#	103676
#	135726
#	175301
#	216298
#
# Disc length: 3226 seconds
#
# Revision: 0
# Processed by: cddbd v1.5.2PL0 Copyright (c) Steve Scherf et al.
# Submitted via: audiograbber 1.83.01
#
DISCID=4b0c9806
DTITLE=Grateful Dead - 92-03-08 Capital Centre, Landover MD
DYEAR=1900
DGENRE=
TTITLE0=Space
TTITLE1=All Along The Watchtower
TTITLE2=So Many Roads
TTITLE3=Throwing Stones
TTITLE4=Not Fade Away
TTITLE5=The Mighty Quinn
EXTD=
EXTT0=
EXTT1=
EXTT2=
EXTT3=
EXTT4=
EXTT5=
PLAYORDER=
